<svg width="24" height="24" viewBox="0 0 24 24" fill="none" xmlns="http://www.w3.org/2000/svg">
<path d="M11.9816 14.6231C15.0116 14.6153 17.588 16.0066 18.535 19.0014C16.6262 20.1651 14.3794 20.6133 11.9816 20.6074C9.58376 20.6133 7.33691 20.1651 5.4281 19.0014C6.3762 16.0033 8.94824 14.6153 11.9816 14.6231Z" stroke="black" stroke-width="1.5" stroke-linecap="square"/>
<path d="M6.5946 13.773C4.47024 13.7675 2.66395 14.7429 2.00001 16.8426C2.7247 17.2844 3.51888 17.5791 4.36173 17.7558" stroke="black" stroke-width="1.5" stroke-linecap="square"/>
<path d="M17.4056 13.773C19.53 13.7675 21.3363 14.7429 22.0002 16.8426C21.2755 17.2844 20.4814 17.5791 19.6385 17.7558" stroke="black" stroke-width="1.5" stroke-linecap="square"/>
<circle cx="12.0001" cy="7.49102" r="4.09844" stroke="black" stroke-width="1.5" stroke-linecap="square"/>
<path d="M16.4831 6.05059C16.7727 5.95272 17.083 5.89966 17.4056 5.89966C18.9962 5.89966 20.2856 7.18907 20.2856 8.77964C20.2856 10.3702 18.9962 11.6596 17.4056 11.6596C16.6326 11.6596 15.9307 11.3551 15.4134 10.8594" stroke="black" stroke-width="1.5" stroke-linecap="square"/>
<path d="M7.25057 5.97469C7.03986 5.92561 6.82027 5.89966 6.59461 5.89966C5.00404 5.89966 3.71463 7.18907 3.71463 8.77964C3.71463 10.3702 5.00404 11.6596 6.59461 11.6596C7.28784 11.6596 7.92386 11.4147 8.42085 11.0067" stroke="black" stroke-width="1.5" stroke-linecap="square"/>
</svg>
